# xmcd
#
# Track frame offsets:
#	150
#	24105
#	42577
#	59560
#	79212
#	96390
#	114735
#	137192
#	157955
#	178967
#	193605
#	212707
#	230592
#
# Disc length: 3299 seconds
#
# Revision: 0
# Processed by: cddbd v1.4PL0 Copyright (c) Steve Scherf et al.
# Submitted via: dBpowerAMP V4.0
#
DISCID=bc0ce10d
DTITLE=Su - Solo
DYEAR=2003
DGENRE=Blues
TTITLE0=Alone with you
TTITLE1=Loving you (ole ole ole)
TTITLE2=Seniorita
TTITLE3=Always be here
TTITLE4=Better than that
TTITLE5=Hit them with it
TTITLE6=What is she cheats?
TTITLE7=Love on line
TTITLE8=The way you do that (I like the way)
TTITLE9=Straight up no bends
TTITLE10=Sexy
TTITLE11=Solo
TTITLE12=I'm here for you
EXTD=Surpriseling good :O)
EXTT0=
EXTT1=
EXTT2=
EXTT3=
EXTT4=
EXTT5=
EXTT6=
EXTT7=
EXTT8=
EXTT9=
EXTT10=
EXTT11=
EXTT12=
PLAYORDER=
